<?xml version="1.0" encoding="UTF-8"?>
<svg version="1.1" xmlns="http://www.w3.org/2000/svg" width="125" height="125">
<path d="M0 0 C0.35644531 2.68969727 0.35644531 2.68969727 0.328125 6.06640625 C0.32296875 7.27361328 0.3178125 8.48082031 0.3125 9.72460938 C0.291875 10.99111328 0.27125 12.25761719 0.25 13.5625 C0.24484375 14.83287109 0.2396875 16.10324219 0.234375 17.41210938 C0.15369778 26.84630222 0.15369778 26.84630222 -1 28 C-3.21534624 28.22955099 -5.43732247 28.39564785 -7.66015625 28.53515625 C-8.32462265 28.57813339 -8.98908905 28.62111053 -9.6736908 28.66539001 C-11.80304314 28.80210844 -13.93273582 28.93237038 -16.0625 29.0625 C-17.50328215 29.15387298 -18.94403784 29.24566439 -20.38476562 29.33789062 C-23.9228824 29.5634558 -27.46133221 29.78323096 -31 30 C-31 33.63 -31 37.26 -31 41 C-30.34 41 -29.68 41 -29 41 C-28.62875 40.13375 -28.62875 40.13375 -28.25 39.25 C-26.71443549 36.48598388 -25.60033066 34.84760336 -23 33 C-20.17890767 32.96216926 -17.7944464 33.44111072 -15 34 C-14.60167969 35.01320313 -14.60167969 35.01320313 -14.1953125 36.046875 C-13.84210938 36.93890625 -13.48890625 37.8309375 -13.125 38.75 C-12.77695313 39.63171875 -12.42890625 40.5134375 -12.0703125 41.421875 C-11.1353291 43.6740248 -10.12219206 45.83649459 -9 48 C-8.34 47.67 -7.68 47.34 -7 47 C-5.45976004 46.93049459 -3.91665012 46.91547643 -2.375 46.9375 C-1.14910156 46.95103516 -1.14910156 46.95103516 0.1015625 46.96484375 C0.72804688 46.97644531 1.35453125 46.98804688 2 47 C4.14710968 52.62338249 6.13236819 58.27789404 8 64 C7.44570312 64.33773437 6.89140625 64.67546875 6.3203125 65.0234375 C5.59585938 65.46945313 4.87140625 65.91546875 4.125 66.375 C3.40570313 66.81585938 2.68640625 67.25671875 1.9453125 67.7109375 C-0.11793582 68.9853713 -0.11793582 68.9853713 -2 71 C-0.88477562 74.46156377 0.24382115 77.91862018 1.375 81.375 C1.69210938 82.35984375 2.00921875 83.3446875 2.3359375 84.359375 C2.8 85.77089844 2.8 85.77089844 3.2734375 87.2109375 C3.69761963 88.51490479 3.69761963 88.51490479 4.13037109 89.84521484 C4.90257878 92.16330145 4.90257878 92.16330145 7 94 C7.495 93.67 7.99 93.34 8.5 93 C12.09090894 91.56363642 15.14456127 91.87148538 19 92 C19.84678051 93.86896555 20.67686211 95.74550181 21.5 97.625 C22.19609375 99.19121094 22.19609375 99.19121094 22.90625 100.7890625 C24.03525894 104.10351018 24.08464863 106.53363863 24 110 C20.2630316 111.53395209 16.50881043 113.02046823 12.75 114.5 C11.18378906 115.14388672 11.18378906 115.14388672 9.5859375 115.80078125 C1.90299368 118.78859274 -5.95727465 120.76092331 -14.11791992 118.3828125 C-19.12294647 115.95450497 -21.61479149 111.80396425 -24 107 C-25.35429825 103.0534822 -26.34944762 99.05739792 -27.3125 95 C-28.199375 91.37 -29.08625 87.74 -30 84 C-30.33 93.24 -30.66 102.48 -31 112 C-43.38832357 116.64562134 -54.24310013 116.28793537 -67.1875 115.5625 C-68.26487427 115.50376709 -68.26487427 115.50376709 -69.36401367 115.44384766 C-76.29414941 115.01385469 -76.29414941 115.01385469 -79 114 C-80.50252915 110.9949417 -80.12992759 107.90743067 -80.11352539 104.61279297 C-80.11367142 103.85172241 -80.11381744 103.09065186 -80.1139679 102.30651855 C-80.11326993 99.78504611 -80.10548294 97.26364708 -80.09765625 94.7421875 C-80.09579166 92.99626709 -80.09436795 91.25034616 -80.09336853 89.50442505 C-80.08954659 84.90454672 -80.07971905 80.30469986 -80.06866455 75.70483398 C-80.05844349 71.0128624 -80.05386942 66.32088575 -80.04882812 61.62890625 C-80.03809651 52.41925699 -80.02102394 43.20963111 -80 34 C-81.16015625 34.03480469 -81.16015625 34.03480469 -82.34375 34.0703125 C-83.90609375 34.09738281 -83.90609375 34.09738281 -85.5 34.125 C-86.5209375 34.14820313 -87.541875 34.17140625 -88.59375 34.1953125 C-92 34 -92 34 -100 32 C-100 23.42 -100 14.84 -100 6 C-93.71457168 4.85719485 -87.56517259 3.74067803 -81.25634766 2.89916992 C-80.56361252 2.80627686 -79.87087738 2.71338379 -79.15715027 2.61767578 C-72.00680842 1.66402906 -64.85122135 0.74987552 -57.6953125 -0.16088867 C-54.31697952 -0.59218601 -50.94066365 -1.03606417 -47.56542969 -1.4909668 C-43.45086571 -2.04537331 -39.33391704 -2.57686596 -35.21436691 -3.09287071 C-33.66107149 -3.29118079 -32.10873599 -3.49718893 -30.55757523 -3.71155739 C-20.09841388 -5.14908763 -9.22666307 -6.15110872 0 0 Z " fill="#E3A205" transform="translate(100,5)"/>
<path d="M0 0 C1.175625 0.33 2.35125 0.66 3.5625 1 C3.82804687 1.67546875 4.09359375 2.3509375 4.3671875 3.046875 C4.72039062 3.93890625 5.07359375 4.8309375 5.4375 5.75 C5.78554687 6.63171875 6.13359375 7.5134375 6.4921875 8.421875 C7.4271709 10.6740248 8.44030794 12.83649459 9.5625 15 C10.2225 14.67 10.8825 14.34 11.5625 14 C13.10273996 13.93049459 14.64584988 13.91547643 16.1875 13.9375 C17.41339844 13.95103516 17.41339844 13.95103516 18.6640625 13.96484375 C19.60378906 13.98224609 19.60378906 13.98224609 20.5625 14 C22.70960968 19.62338249 24.69486819 25.27789404 26.5625 31 C26.00820312 31.33773437 25.45390625 31.67546875 24.8828125 32.0234375 C24.15835938 32.46945313 23.43390625 32.91546875 22.6875 33.375 C21.96820313 33.81585938 21.24890625 34.25671875 20.5078125 34.7109375 C18.44456418 35.9853713 18.44456418 35.9853713 16.5625 38 C17.67772438 41.46156377 18.80632115 44.91862018 19.9375 48.375 C20.41316406 49.85226563 20.41316406 49.85226563 20.8984375 51.359375 C21.2078125 52.30039063 21.5171875 53.24140625 21.8359375 54.2109375 C22.11872559 55.08024902 22.40151367 55.94956055 22.69287109 56.84521484 C23.46507878 59.16330145 23.46507878 59.16330145 25.5625 61 C26.0575 60.67 26.5525 60.34 27.0625 60 C30.65340894 58.56363642 33.70706127 58.87148538 37.5625 59 C38.40928051 60.86896555 39.23936211 62.74550181 40.0625 64.625 C40.75859375 66.19121094 40.75859375 66.19121094 41.46875 67.7890625 C42.59775894 71.10351018 42.64714863 73.53363863 42.5625 77 C38.8255316 78.53395209 35.07131043 80.02046823 31.3125 81.5 C29.74628906 82.14388672 29.74628906 82.14388672 28.1484375 82.80078125 C20.46549368 85.78859274 12.60522535 87.76092331 4.44458008 85.3828125 C-1.31177558 82.58997981 -4.34340488 77.09674681 -6.40063477 71.27392578 C-7.25631619 68.30061365 -8.02091071 65.31927194 -8.75 62.3125 C-9.01361328 61.29349609 -9.27722656 60.27449219 -9.54882812 59.22460938 C-10.68829316 54.69930537 -11.59085348 50.68966528 -11.4375 46 C-14.4075 46.66 -17.3775 47.32 -20.4375 48 C-22.50794316 42.23876685 -23.88356641 37.09326949 -24.4375 31 C-22.7875 30.34 -21.1375 29.68 -19.4375 29 C-19.61410156 28.40574219 -19.79070313 27.81148437 -19.97265625 27.19921875 C-20.89497695 22.80623943 -21.10129104 20.11142842 -18.74609375 16.16796875 C-16.40812524 13.33946201 -13.94924275 10.67443066 -11.4375 8 C-10.81746094 7.17242187 -10.19742188 6.34484375 -9.55859375 5.4921875 C-4.98786775 -0.59504387 -4.98786775 -0.59504387 0 0 Z " fill="#259FBA" transform="translate(81.4375,38)"/>
<path d="M0 0 C13 3 13 3 16 5 C16.35644531 7.68969727 16.35644531 7.68969727 16.328125 11.06640625 C16.32296875 12.27361328 16.3178125 13.48082031 16.3125 14.72460938 C16.291875 15.99111328 16.27125 17.25761719 16.25 18.5625 C16.24484375 19.83287109 16.2396875 21.10324219 16.234375 22.41210938 C16.15369778 31.84630222 16.15369778 31.84630222 15 33 C12.78465376 33.22955099 10.56267753 33.39564785 8.33984375 33.53515625 C7.67537735 33.57813339 7.01091095 33.62111053 6.3263092 33.66539001 C4.19695686 33.80210844 2.06726418 33.93237038 -0.0625 34.0625 C-1.50328215 34.15387298 -2.94403784 34.24566439 -4.38476562 34.33789062 C-7.9228824 34.5634558 -11.46133221 34.78323096 -15 35 C-14.88213135 35.80679199 -14.7642627 36.61358398 -14.64282227 37.44482422 C-13.58488617 46.24435544 -13.58488617 46.24435544 -15.65234375 50.0078125 C-16.40644531 50.70648438 -17.16054687 51.40515625 -17.9375 52.125 C-21.28351644 55.70960196 -22.56268592 57.66584698 -22.5 62.625 C-22.37400785 64.08740893 -22.22226559 65.54909963 -22 67 C-23.98 67.99 -23.98 67.99 -26 69 C-25.40984815 74.50808397 -24.43336231 79.64878069 -23 85 C-18.545 84.505 -18.545 84.505 -14 84 C-14.33 94.89 -14.66 105.78 -15 117 C-22.24622705 119.71733514 -27.24074891 121.15476868 -34.75 121.0625 C-35.44738281 121.05798828 -36.14476562 121.05347656 -36.86328125 121.04882812 C-38.57555803 121.0371002 -40.28779033 121.01916653 -42 121 C-42 120.67 -42 120.34 -42 120 C-37.71 120 -33.42 120 -29 120 C-29 90.63 -29 61.26 -29 31 C-18.82507327 29.6433431 -9.17337017 28.58133544 1 28 C0.67 18.76 0.34 9.52 0 0 Z " fill="#845302" transform="translate(84,0)"/>
<path d="M0 0 C13 3 13 3 16 5 C16.35644531 7.68969727 16.35644531 7.68969727 16.328125 11.06640625 C16.32296875 12.27361328 16.3178125 13.48082031 16.3125 14.72460938 C16.291875 15.99111328 16.27125 17.25761719 16.25 18.5625 C16.24484375 19.83287109 16.2396875 21.10324219 16.234375 22.41210938 C16.15369778 31.84630222 16.15369778 31.84630222 15 33 C12.78465376 33.22955099 10.56267753 33.39564785 8.33984375 33.53515625 C7.67537735 33.57813339 7.01091095 33.62111053 6.3263092 33.66539001 C4.19695686 33.80210844 2.06726418 33.93237038 -0.0625 34.0625 C-1.50328215 34.15387298 -2.94403784 34.24566439 -4.38476562 34.33789062 C-7.9228824 34.5634558 -11.46133221 34.78323096 -15 35 C-14.67 38.96 -14.34 42.92 -14 47 C-20.69565217 43.65217391 -20.69565217 43.65217391 -21.875 41.125 C-23.37003693 38.30104136 -25.45502944 36.87524147 -28 35 C-27.625 33.0625 -27.625 33.0625 -27 31 C-24.75662739 29.8783137 -23.13143685 29.7127553 -20.640625 29.46484375 C-19.77179688 29.37783203 -18.90296875 29.29082031 -18.0078125 29.20117188 C-17.09773438 29.11416016 -16.18765625 29.02714844 -15.25 28.9375 C-14.35539062 28.84662109 -13.46078125 28.75574219 -12.5390625 28.66210938 C-7.96502123 28.21347553 -3.62157117 28 1 28 C0.505 14.14 0.505 14.14 0 0 Z " fill="#663D01" transform="translate(84,0)"/>
<path d="M0 0 C0 27.72 0 55.44 0 84 C4.29 84.33 8.58 84.66 13 85 C13 85.33 13 85.66 13 86 C11.41676312 86.027193 9.83338938 86.04648306 8.25 86.0625 C7.36828125 86.07410156 6.4865625 86.08570312 5.578125 86.09765625 C3.1893881 86.00717379 1.24754126 85.80486275 -1 85 C-2.50252915 81.9949417 -2.12992759 78.90743067 -2.11352539 75.61279297 C-2.11367142 74.85172241 -2.11381744 74.09065186 -2.1139679 73.30651855 C-2.11326993 70.78504611 -2.10548294 68.26364708 -2.09765625 65.7421875 C-2.09579166 63.99626709 -2.09436795 62.25034616 -2.09336853 60.50442505 C-2.08954659 55.90454672 -2.07971905 51.30469986 -2.06866455 46.70483398 C-2.05844349 42.0128624 -2.05386942 37.32088575 -2.04882812 32.62890625 C-2.03809651 23.41925699 -2.02102394 14.20963111 -2 5 C-3.21671387 5.01740234 -3.21671387 5.01740234 -4.45800781 5.03515625 C-5.52889648 5.04417969 -6.59978516 5.05320312 -7.703125 5.0625 C-8.76176758 5.07410156 -9.82041016 5.08570313 -10.91113281 5.09765625 C-14.88880571 4.97189991 -18.20797867 4.16677579 -22 3 C-22 2.34 -22 1.68 -22 1 C-14.48040153 -0.01960657 -7.76083877 0 0 0 Z " fill="#6D4F01" transform="translate(22,34)"/>
<path d="M0 0 C0.99 0.495 0.99 0.495 2 1 C2.103125 1.598125 2.20625 2.19625 2.3125 2.8125 C3.29765701 5.94709049 5.45157693 7.02497212 8 9 C8.33 9.99 8.66 10.98 9 12 C10.62332967 13.38576923 12.28724465 14.72641268 14 16 C12.54098339 19.84649832 10.5612873 21.08238376 7 23 C5.26043342 24.73956658 5.62809614 27.1936622 5.4375 29.5625 C5.35371094 30.57441406 5.26992188 31.58632813 5.18359375 32.62890625 C5.09271484 33.80259766 5.09271484 33.80259766 5 35 C3.35 35.66 1.7 36.32 0 37 C0 24.79 0 12.58 0 0 Z " fill="#885D02" transform="translate(55,31)"/>
<path d="M0 0 C2.69082872 0.17635452 5.32851446 0.61835921 8 1 C10.15294651 6.28830549 12.27933894 11.55123997 14 17 C11.69 17.33 9.38 17.66 7 18 C6.1605118 15.89828133 5.32860344 13.79353375 4.5 11.6875 C3.80390625 9.92986328 3.80390625 9.92986328 3.09375 8.13671875 C2 5 2 5 2 2 C1.01 1.67 0.02 1.34 -1 1 C-0.67 0.67 -0.34 0.34 0 0 Z " fill="#0B839F" transform="translate(77,38)"/>
<path d="M0 0 C0.66 0 1.32 0 2 0 C2.33 2.64 2.66 5.28 3 8 C3.99 8.33 4.98 8.66 6 9 C7.66666667 10.66666667 9.33333333 12.33333333 11 14 C16.90967581 15.96989194 23.54637388 15.58708172 29.5 13.875 C31.2325 13.441875 31.2325 13.441875 33 13 C33.99 13.66 34.98 14.32 36 15 C27.85647724 18.59084468 19.69202876 20.957449 10.86328125 18.375 C5.95299945 15.98909301 3.15043793 11.84973239 1 7 C0.38930029 4.59791447 0.15555327 2.48885227 0 0 Z " fill="#06697F" transform="translate(75,105)"/>
<path d="M0 0 C0.70125 0.185625 1.4025 0.37125 2.125 0.5625 C5.52416731 1.23219854 5.52416731 1.23219854 11 0 C10.67 4.29 10.34 8.58 10 13 C9.67 12.34 9.34 11.68 9 11 C8.1028125 10.8453125 8.1028125 10.8453125 7.1875 10.6875 C3.93702011 9.66592061 2.84348989 7.79701914 1 5 C0.25 2.1875 0.25 2.1875 0 0 Z " fill="#452A06" transform="translate(59,84)"/>
<path d="M0 0 C0 1.32 0 2.64 0 4 C-2.75006608 4.0270203 -5.49986546 4.04684883 -8.25 4.0625 C-9.02730469 4.07087891 -9.80460938 4.07925781 -10.60546875 4.08789062 C-11.73662109 4.09272461 -11.73662109 4.09272461 -12.890625 4.09765625 C-13.92751465 4.10551147 -13.92751465 4.10551147 -14.98535156 4.11352539 C-17.09973898 3.99437971 -18.96641515 3.57618237 -21 3 C-21 2.34 -21 1.68 -21 1 C-13.96094956 0.06145994 -7.09727428 -0.10808032 0 0 Z " fill="#865A02" transform="translate(21,34)"/>
<path d="M0 0 C0.66 0.33 1.32 0.66 2 1 C1.34 1.61875 0.68 2.2375 0 2.875 C-2.79514062 7.24240721 -2.35288244 10.95182061 -2 16 C-3.98 16.99 -3.98 16.99 -6 18 C-5.38487182 23.00890086 -4.7282448 28.00632136 -4 33 C-7.39083014 27.91375479 -9.7226107 23.21445203 -9 17 C-8.34 16.34 -7.68 15.68 -7 15 C-6.01 15 -5.02 15 -4 15 C-4.04640625 14.25234375 -4.0928125 13.5046875 -4.140625 12.734375 C-4.43910806 4.59005146 -4.43910806 4.59005146 -2 1.3125 C-1.34 0.879375 -0.68 0.44625 0 0 Z " fill="#61521E" transform="translate(64,51)"/>
<path d="M0 0 C0.66 0 1.32 0 2 0 C2.33 2.64 2.66 5.28 3 8 C3.99 8.33 4.98 8.66 6 9 C6.680625 9.78375 7.36125 10.5675 8.0625 11.375 C11.98469517 14.87994036 15.96225972 15.79681154 21 17 C21 17.33 21 17.66 21 18 C15.52808492 18.34199469 10.74208638 17.98244426 6 15 C1.92260369 10.52996553 0.37170905 5.94734473 0 0 Z " fill="#0989A6" transform="translate(75,105)"/>
<path d="M0 0 C2.97 0 5.94 0 9 0 C11.14710968 5.62338249 13.13236819 11.27789404 15 17 C11.25 20 11.25 20 9 20 C9 19.34 9 18.68 9 18 C9.99 18 10.98 18 12 18 C11.53876063 15.7919392 11.05891807 13.59147282 10.546875 11.39453125 C10.10538541 9.46143753 9.72970616 7.51338388 9.375 5.5625 C8.28302649 2.88517285 8.28302649 2.88517285 6.09375 2.19140625 C3.61792928 1.52396034 3.61792928 1.52396034 0 1 C0 0.67 0 0.34 0 0 Z " fill="#085A6E" transform="translate(93,52)"/>
<path d="M0 0 C2.61093545 1.30546772 2.68996636 2.27990215 3.625 5 C5.1632708 9.8157925 5.23943895 13.97178215 5 19 C3.0492171 16.07382565 2.28486538 13.97955419 1.375 10.625 C1.11460938 9.68914062 0.85421875 8.75328125 0.5859375 7.7890625 C0.02074867 5.09876365 -0.10954217 2.73855429 0 0 Z " fill="#0A6D84" transform="translate(70,84)"/>
<path d="M0 0 C0.66 0.33 1.32 0.66 2 1 C1.34 1.639375 0.68 2.27875 0 2.9375 C-2.68221553 7.04464253 -2.37381974 10.23379829 -2 15 C-2.66 15 -3.32 15 -4 15 C-4.63019694 4.84682713 -4.63019694 4.84682713 -2 1.3125 C-1.34 0.879375 -0.68 0.44625 0 0 Z " fill="#6A5215" transform="translate(64,51)"/>
<path d="M0 0 C0.33 0 0.66 0 1 0 C1 1.98 1 3.96 1 6 C-0.59915881 6.69906942 -2.20455045 7.38389468 -3.8125 8.0625 C-4.70582031 8.44535156 -5.59914063 8.82820313 -6.51953125 9.22265625 C-9 10 -9 10 -12 9 C-11.34 9 -10.68 9 -10 9 C-9.67 8.01 -9.34 7.02 -9 6 C-4.545 5.505 -4.545 5.505 0 5 C0 3.35 0 1.7 0 0 Z " fill="#065D72" transform="translate(123,109)"/>
<path d="M0 0 C0.66 0 1.32 0 2 0 C2.33 2.64 2.66 5.28 3 8 C3.99 8.33 4.98 8.66 6 9 C6 10.65 6 12.3 6 14 C3.36968337 11.70860372 2.34441201 9.7516301 1.3125 6.4375 C1.06113281 5.65246094 0.80976562 4.86742188 0.55078125 4.05859375 C0 2 0 2 0 0 Z " fill="#065E72" transform="translate(75,105)"/>
</svg>
